<svg version="1.1" xmlns="http://www.w3.org/2000/svg" width="400" height="400" fill="#66fcf1">
    <path
        d="M0 0 C0.85507141 -0.00570007 1.71014282 -0.01140015 2.59112549 -0.01727295 C4.39976788 -0.02668376 6.20842711 -0.03324127 8.01708984 -0.03710938 C10.71614808 -0.04669921 13.41440502 -0.07771082 16.11328125 -0.109375 C68.96255597 -0.43082199 117.94626077 23.11905576 155.34814453 59.55566406 C187.79072539 91.60874395 211.62220565 139.65034009 212.20587158 185.75994873 C212.2122464 186.96158661 212.2122464 186.96158661 212.21875 188.1875 C212.22445007 189.04257141 212.23015015 189.89764282 212.23602295 190.77862549 C212.24543376 192.58726788 212.25199127 194.39592711 212.25585938 196.20458984 C212.26544921 198.90364808 212.29646082 201.60190502 212.328125 204.30078125 C212.64957199 257.15005597 189.09969424 306.13376077 152.66308594 343.53564453 C120.61000605 375.97822539 72.56840991 399.80970565 26.45880127 400.39337158 C25.65770935 400.39762146 24.85661743 400.40187134 24.03125 400.40625 C23.17617859 400.41195007 22.32110718 400.41765015 21.44012451 400.42352295 C19.63148212 400.43293376 17.82282289 400.43949127 16.01416016 400.44335938 C13.31510192 400.45294921 10.61684498 400.48396082 7.91796875 400.515625 C-44.93130597 400.83707199 -93.91501077 377.28719424 -131.31689453 340.85058594 C-163.75947539 308.79750605 -187.59095565 260.75590991 -188.17462158 214.64630127 C-188.17887146 213.84520935 -188.18312134 213.04411743 -188.1875 212.21875 C-188.19605011 210.93614288 -188.19605011 210.93614288 -188.20477295 209.62762451 C-188.21418376 207.81898212 -188.22074127 206.01032289 -188.22460938 204.20166016 C-188.23419921 201.50260192 -188.26521082 198.80434498 -188.296875 196.10546875 C-188.61832199 143.25619403 -165.06844424 94.27248923 -128.63183594 56.87060547 C-95.81322351 23.65318951 -47.10835814 0.24991486 0 0 Z M-90.984375 66.203125 C-92.25667969 67.18152344 -92.25667969 67.18152344 -93.5546875 68.1796875 C-96.20455661 70.38649168 -98.56560693 72.74330288 -100.984375 75.203125 C-102.41344799 76.58921835 -103.84465971 77.97310816 -105.27734375 79.35546875 C-118.91032617 92.62295938 -129.083579 105.65091013 -138.00878906 122.38671875 C-138.86091367 123.97325705 -139.74431159 125.54291841 -140.6328125 127.109375 C-150.68697526 145.62180166 -156.28138348 169.17450896 -156.984375 190.203125 C-157.02433594 191.3375 -157.06429687 192.471875 -157.10546875 193.640625 C-157.86121501 237.74064192 -144.14244724 277.67728802 -115.984375 311.578125 C-115.28054687 312.42793945 -115.28054687 312.42793945 -114.5625 313.29492188 C-113.41609146 314.63858012 -112.20544557 315.92693666 -110.984375 317.203125 C-110.324375 317.203125 -109.664375 317.203125 -108.984375 317.203125 C-108.71890869 317.79399902 -108.45344238 318.38487305 -108.17993164 318.99365234 C-100.56353342 333.06929129 -80.75282463 343.17671035 -66.984375 350.203125 C-66.25524902 350.58452637 -65.52612305 350.96592773 -64.77490234 351.35888672 C-47.72225027 360.21954266 -29.9215578 365.2186937 -10.984375 368.203125 C-9.35556396 368.46113892 -9.35556396 368.46113892 -7.69384766 368.72436523 C-1.55745772 369.51635291 4.58659901 369.44689624 10.765625 369.453125 C11.80240891 369.45463562 11.80240891 369.45463562 12.86013794 369.45617676 C24.15177661 369.44506535 34.97760552 368.67635248 46.015625 366.203125 C46.71139648 366.05327148 47.40716797 365.90341797 48.12402344 365.74902344 C70.28105816 360.90185049 92.81320704 351.92046717 111.015625 338.203125 C111.85222656 337.58566406 112.68882812 336.96820313 113.55078125 336.33203125 C117.69275687 333.20029359 121.37258632 329.91131489 125.015625 326.203125 C125.99379692 325.22296459 126.97299931 324.2438317 127.953125 323.265625 C128.45585937 322.76289063 128.95859375 322.26015625 129.4765625 321.7421875 C131.01041667 320.20833333 132.54427083 318.67447917 134.078125 317.140625 C134.57344727 316.64393311 135.06876953 316.14724121 135.57910156 315.63549805 C136.89709673 314.32131082 138.22913946 313.02125126 139.5625 311.72265625 C148.93383049 302.09764324 155.93000437 291.10769931 162.015625 279.203125 C162.54349609 278.17614502 162.54349609 278.17614502 163.08203125 277.12841797 C183.56130233 236.78387609 186.49624473 190.00132798 172.8449707 146.921875 C166.19415792 127.12410672 155.63278646 105.82028646 140.703125 90.890625 C138.57044639 88.75794639 136.6053347 86.60929801 134.640625 84.328125 C108.59389837 54.50490069 68.29724324 34.88383143 28.84344482 32.04693604 C-14.64123021 29.55660371 -56.08556975 39.24876322 -90.984375 66.203125 Z "
        transform="translate(187.984375,-0.203125)" />
    <path
        d="M0 0 C118.12631579 0 118.12631579 0 142 21 C142.73734375 21.64324219 143.4746875 22.28648438 144.234375 22.94921875 C161.94269234 39.46680441 170.23420302 64.13851489 171.1081543 87.94628906 C171.17034041 91.3606872 171.18560597 94.77255571 171.1875 98.1875 C171.19974609 99.33025391 171.21199219 100.47300781 171.22460938 101.65039062 C171.27084958 128.91669934 163.09320211 154.4636408 143.890625 174.1640625 C135.33816384 182.24832323 125.09854414 188.18594923 114 192 C112.56527344 192.52207031 112.56527344 192.52207031 111.1015625 193.0546875 C75.91928424 205.44536133 35.40112488 198 0 198 C0 132.66 0 67.32 0 0 Z M30 30 C29.9014509 31.78195872 29.873679 33.56785748 29.87301636 35.35253906 C29.87019653 36.51362183 29.86737671 37.67470459 29.86447144 38.87097168 C29.86649567 40.15620728 29.8685199 41.44144287 29.87060547 42.765625 C29.86925144 44.12373909 29.8674715 45.4818528 29.86529541 46.83996582 C29.86072123 50.53821201 29.86251057 54.23643042 29.8656745 57.93467712 C29.86819818 61.79662147 29.86586054 65.65856337 29.86428833 69.52050781 C29.86246666 76.00716582 29.86487288 82.49381246 29.86962891 88.98046875 C29.87507152 96.49049923 29.87330887 104.00050256 29.8678025 111.51053238 C29.8632713 117.9470353 29.86262085 124.38353003 29.86524117 130.82003403 C29.86680391 134.66929316 29.8669978 138.51853952 29.86370468 142.36779785 C29.86082587 145.98580706 29.86280184 149.60378111 29.86859894 153.2217865 C29.87056209 155.19086661 29.86757271 157.15994967 29.86447144 159.12902832 C29.86729126 160.29011108 29.87011108 161.45119385 29.87301636 162.64746094 C29.87339338 163.66289978 29.87377041 164.67833862 29.87415886 165.72454834 C29.74444101 167.96676831 29.74444101 167.96676831 31 169 C32.66368508 169.11972578 34.33241129 169.1701582 36.00024414 169.19287109 C37.06968765 169.20893402 38.13913116 169.22499695 39.24098206 169.24154663 C44.20142033 169.2861812 49.16172129 169.32717354 54.12231445 169.35009766 C56.72234121 169.36653007 59.32232524 169.39364755 61.92211914 169.43212891 C76.43800605 169.64583012 89.50802232 169.8338944 103 164 C103.62646423 163.74054596 104.25292847 163.48109192 104.89837646 163.21377563 C119.08821277 157.33560416 129.84799303 147.05220045 136.22314453 132.98925781 C139.86132178 123.67314585 141.6092598 112.96387519 142 103 C142.07734375 101.56914062 142.07734375 101.56914062 142.15625 100.109375 C142.76375408 79.5554868 137.05044661 60.4451966 122.875 45.3125 C112.39597588 34.87824273 96.0709509 28.88258205 81.30761719 28.87060547 C79.63128204 28.86587723 79.63128204 28.86587723 77.92108154 28.86105347 C76.72509338 28.8630777 75.52910522 28.86510193 74.296875 28.8671875 C73.0633429 28.86623077 71.82981079 28.86527405 70.55889893 28.86428833 C67.29107895 28.86343482 64.02330679 28.86745233 60.75549316 28.87304688 C58.74583434 28.87500406 56.73621895 28.87304607 54.7265625 28.86962891 C50.87497917 28.86348075 47.02346095 28.86419092 43.171875 28.8671875 C41.96778992 28.86516327 40.76370483 28.86313904 39.52313232 28.86105347 C38.4181842 28.86420563 37.31323608 28.86735779 36.17480469 28.87060547 C34.70850616 28.87179886 34.70850616 28.87179886 33.21258545 28.87301636 C31.02586974 28.75232031 31.02586974 28.75232031 30 30 Z "
        transform="translate(129,105)" />
</svg>